<svg width="40" height="40" viewBox="0 0 40 40" fill="none" xmlns="http://www.w3.org/2000/svg">
<path fill-rule="evenodd" clip-rule="evenodd" d="M29.1633 10.17L28.1083 5.63667L23.31 6.06333L19.6733 3L16.0483 6.06333L11.2383 5.63667L10.17 10.17L5.63667 11.225L6.06333 16.0233L3 19.66L6.06333 23.285L5.63667 28.095L10.17 29.1633L11.225 33.6967L16.0233 33.27L19.66 36.3333L23.285 33.27L28.095 33.6967L29.1633 29.1633L33.6967 28.1083L33.27 23.31L36.3333 19.6733L33.27 16.0483L33.6967 11.2383L29.1633 10.17Z" stroke="black" stroke-linecap="round" stroke-linejoin="round"/>
<path d="M14.666 24.6665L24.666 14.6665" stroke="black" stroke-linecap="round" stroke-linejoin="round"/>
<path d="M15.0817 14.6665C14.8517 14.6665 14.665 14.8532 14.6667 15.0832C14.6667 15.3132 14.8533 15.4999 15.0833 15.4999C15.3133 15.4999 15.5 15.3132 15.5 15.0832C15.5 14.8532 15.3133 14.6665 15.0817 14.6665" stroke="black" stroke-linecap="round" stroke-linejoin="round"/>
<path d="M24.2477 23.8332C24.0177 23.8332 23.831 24.0198 23.8327 24.2498C23.8327 24.4798 24.0194 24.6665 24.2494 24.6665C24.4794 24.6665 24.666 24.4798 24.666 24.2498C24.666 24.0198 24.4794 23.8332 24.2477 23.8332" stroke="black" stroke-linecap="round" stroke-linejoin="round"/>
</svg>
