<svg width="124" height="22" viewBox="0 0 124 22" fill="none" xmlns="http://www.w3.org/2000/svg">
<path d="M114.555 10.6543L122.135 22H114.05L109.913 15.84L104.449 22H95.9844L106.28 10.4029L99.3006 0H107.417L110.892 5.21714L115.503 0H123.999L114.555 10.6543Z" fill="black"/>
<path d="M83.6797 22L88.1013 0H94.7338L90.3121 22H83.6797Z" fill="black"/>
<path d="M59.9297 5.12286L60.9719 0H83.5223L82.48 5.12286H75.1212L71.7102 22H64.3513L67.7307 5.12286H59.9297Z" fill="black"/>
<path d="M52.0501 15.7771H35.9112L34.6794 22H27.668L32.0896 0H54.2925C54.7979 0 55.2611 0.104762 55.6822 0.314285C56.1244 0.52381 56.4928 0.817143 56.7876 1.19429C57.0824 1.55048 57.2929 1.95905 57.4193 2.42C57.5667 2.88095 57.5877 3.36286 57.4824 3.86571L55.6822 12.8229C55.5138 13.6819 55.0821 14.3943 54.3873 14.96C53.7135 15.5048 52.9345 15.7771 52.0501 15.7771ZM36.9534 10.6229H48.8918C49.0603 10.6229 49.2077 10.5705 49.334 10.4657C49.4603 10.361 49.5445 10.2248 49.5867 10.0571L50.4078 6.00286C50.4499 5.77238 50.3973 5.57333 50.2499 5.40572C50.1025 5.21714 49.913 5.12286 49.6814 5.12286H34.1425L37.8377 6.22286L36.9534 10.6229Z" fill="black"/>
<path d="M22.7109 0C23.2794 0 23.8058 0.125715 24.2901 0.377144C24.7954 0.60762 25.2165 0.932381 25.5534 1.35143C25.8903 1.74952 26.1324 2.21048 26.2798 2.73429C26.4272 3.2581 26.4377 3.80286 26.3114 4.36857L23.3741 19.0457C23.2057 19.9257 22.7741 20.6381 22.0792 21.1829C21.4055 21.7276 20.6264 22 19.7421 22H3.69786C3.10831 22 2.56087 21.8848 2.05554 21.6543C1.57126 21.4029 1.16068 21.0781 0.823793 20.68C0.507962 20.261 0.276352 19.7895 0.128964 19.2657C-0.0184235 18.721 -0.0394789 18.1657 0.0657982 17.6L3.03461 2.95429C3.20306 2.07429 3.62416 1.36191 4.29794 0.817143C4.97171 0.272381 5.75076 0 6.63509 0H22.7109ZM5.3086 5.12286L9.00382 6.22286L7.04567 15.9971C7.00356 16.2276 7.0562 16.4371 7.20358 16.6257C7.35097 16.7933 7.54047 16.8771 7.77208 16.8771H21.0686L17.4049 15.7771L19.3631 6.00286C19.4052 5.77238 19.3526 5.57333 19.2052 5.40572C19.0578 5.21714 18.8683 5.12286 18.6367 5.12286H5.3086Z" fill="black"/>
</svg>
