<svg width="168" height="30" viewBox="0 0 168 30" fill="none" xmlns="http://www.w3.org/2000/svg">
<path d="M155.205 14.5286L165.475 30H154.521L148.915 21.6L141.513 30H130.045L143.994 14.1857L134.538 0H145.535L150.242 7.11429L156.489 0H168L155.205 14.5286Z" fill="white"/>
<path d="M113.372 30L119.363 0H128.349L122.358 30H113.372Z" fill="white"/>
<path d="M81.1963 6.98572L82.6084 0H113.16L111.748 6.98572H101.778L97.157 30H87.1869L91.7654 6.98572H81.1963Z" fill="white"/>
<path d="M70.5203 21.5143H48.6545L46.9857 30H37.4863L43.4769 0H73.5584C74.243 0 74.8706 0.142857 75.4411 0.428571C76.0402 0.714287 76.5394 1.11429 76.9388 1.62857C77.3381 2.11429 77.6234 2.67143 77.7946 3.3C77.9943 3.92857 78.0228 4.58572 77.8802 5.27143L75.4411 17.4857C75.2129 18.6571 74.6281 19.6286 73.6867 20.4C72.7739 21.1429 71.7184 21.5143 70.5203 21.5143ZM50.0666 14.4857H66.2413C66.4695 14.4857 66.6692 14.4143 66.8403 14.2714C67.0115 14.1286 67.1256 13.9429 67.1826 13.7143L68.2952 8.18572C68.3522 7.87143 68.2809 7.6 68.0812 7.37143C67.8815 7.11429 67.6248 6.98572 67.311 6.98572H46.2583L51.2647 8.48571L50.0666 14.4857Z" fill="white"/>
<path d="M30.7696 0C31.5398 0 32.253 0.171429 32.9091 0.514287C33.5938 0.828572 34.1643 1.27143 34.6207 1.84286C35.0772 2.38572 35.4052 3.01429 35.6049 3.72857C35.8046 4.44286 35.8189 5.18572 35.6477 5.95714L31.6682 25.9714C31.44 27.1714 30.8552 28.1429 29.9138 28.8857C29.001 29.6286 27.9455 30 26.7474 30H5.01C4.21126 30 3.46956 29.8429 2.78492 29.5286C2.12881 29.1857 1.57253 28.7429 1.11611 28.2C0.688207 27.6286 0.374413 26.9857 0.174726 26.2714C-0.0249609 25.5286 -0.0534876 24.7714 0.089146 24L4.11141 4.02857C4.33963 2.82857 4.91016 1.85714 5.82301 1.11429C6.73587 0.371429 7.79136 0 8.98948 0H30.7696ZM7.1923 6.98572L12.1987 8.48571L9.54575 21.8143C9.4887 22.1286 9.56001 22.4143 9.7597 22.6714C9.95939 22.9 10.2161 23.0143 10.5299 23.0143H28.5445L23.5809 21.5143L26.2339 8.18572C26.2909 7.87143 26.2196 7.6 26.0199 7.37143C25.8202 7.11429 25.5635 6.98572 25.2497 6.98572H7.1923Z" fill="white"/>
</svg>
