<svg width="11" height="17" viewBox="0 0 11 17" fill="none" xmlns="http://www.w3.org/2000/svg">
<path d="M6.42214 6.38194H10.2221L9.79991 8.07083H6.42214V15.6708H4.73325V8.07083H1.35547V6.38194H4.73325V4.80114C4.73325 3.29549 4.89031 2.74914 5.18418 2.19856C5.47214 1.65457 5.91699 1.20972 6.46098 0.921759C7.01156 0.627892 7.55791 0.470825 9.06356 0.470825C9.50436 0.470825 9.89111 0.513048 10.2221 0.597492V2.15971H9.06356C7.94551 2.15971 7.6052 2.22558 7.25813 2.41136C7.00142 2.54816 6.81058 2.739 6.67378 2.99571C6.488 3.34278 6.42214 3.68309 6.42214 4.80114V6.38194Z" fill="black" stroke="black" stroke-width="0.8"/>
</svg>
