<svg width="15" height="15" viewBox="0 0 15 15" fill="none" xmlns="http://www.w3.org/2000/svg">
<path d="M13.3672 0H1.13281C0.506934 0 0 0.506934 0 1.13281V13.3672C0 13.9931 0.506934 14.5 1.13281 14.5H13.3672C13.9931 14.5 14.5 13.9931 14.5 13.3672V1.13281C14.5 0.506934 13.9931 0 13.3672 0ZM5.22227 10.2831H3.80908V5.76035H5.22227V10.2831ZM4.47744 5.19395H4.46611C3.95352 5.19395 3.62217 4.84844 3.62217 4.40947C3.62217 3.96201 3.96484 3.625 4.48594 3.625C5.00703 3.625 5.32705 3.96201 5.33838 4.40947C5.34121 4.84561 5.00986 5.19395 4.47744 5.19395ZM10.875 10.2831H9.27207V7.94385C9.27207 7.33213 9.02285 6.91299 8.47061 6.91299C8.04863 6.91299 7.81357 7.19619 7.70596 7.46807C7.66631 7.56436 7.67197 7.70029 7.67197 7.83906V10.2831H6.0832C6.0832 10.2831 6.10303 6.13701 6.0832 5.76035H7.67197V6.47119C7.76543 6.15967 8.27236 5.71787 9.08232 5.71787C10.0877 5.71787 10.875 6.36924 10.875 7.76826V10.2831Z" fill="black"/>
</svg>
